<svg xmlns="http://www.w3.org/2000/svg" width="1080" height="1080" viewBox="0 0 1080 1080" version="1.1">
	<path d="M 473.464 159.080 C 396.945 162.705, 319.280 183.641, 263 215.815 C 253.815 221.066, 240.889 230.167, 241.217 231.151 C 241.404 231.711, 247.394 234.307, 254.528 236.919 C 269.976 242.577, 283 248.491, 283 249.847 C 283 250.384, 281.087 251.134, 278.750 251.514 C 264.323 253.854, 247.551 260.577, 236.545 268.431 C 228.275 274.332, 217.485 286.095, 213.989 293.022 C 209.095 302.716, 208.518 302.204, 224.162 302.045 C 231.676 301.968, 238.051 302.273, 238.328 302.722 C 238.606 303.171, 236.601 306.229, 233.874 309.519 C 227.846 316.790, 221.562 328.978, 220.025 336.379 C 218.463 343.903, 219.002 352.615, 221 352.155 C 243.556 346.967, 256.263 348.536, 265.358 357.631 C 270.624 362.896, 274 372.613, 274 382.500 C 274 392.885, 278.285 404.351, 284.481 410.547 L 287.824 413.891 285.966 419.862 C 275.949 452.047, 276.680 496.739, 287.726 527.460 C 294.898 547.408, 306.289 568.065, 318.077 582.500 C 324.234 590.040, 339.398 605.058, 347.500 611.640 C 366.507 627.082, 392.682 640.781, 420.882 650.045 C 439.331 656.106, 440.159 656.488, 438.074 657.957 C 420.391 670.413, 413.020 679.997, 410.698 693.552 C 407.697 711.076, 419.279 730.911, 438.241 740.721 C 445.045 744.242, 446.064 744.478, 454.500 744.488 C 462.235 744.498, 464.034 744.168, 467.303 742.136 C 469.394 740.836, 471.343 740.009, 471.633 740.299 C 472.759 741.425, 462.821 785.389, 459.334 794.710 C 457.983 798.321, 457.935 799.857, 459 805.498 C 459.989 810.743, 459.987 815.359, 458.986 828.292 C 455.539 872.856, 468.339 898.262, 495 899.771 C 504.764 900.324, 511.696 897.842, 518.143 891.486 C 528.428 881.346, 532.873 867.655, 533.721 843.500 C 534.254 828.340, 534.407 827.384, 536.642 825.298 C 537.954 824.072, 539 821.939, 539 820.486 C 539 819.050, 539.727 815.654, 540.615 812.938 C 542.073 808.480, 542.083 807.539, 540.714 803.250 C 539.844 800.523, 538.896 792.155, 538.488 783.600 L 537.777 768.701 544.557 769.396 C 548.286 769.778, 551.659 770.289, 552.053 770.533 C 552.447 770.776, 553.066 773.118, 553.429 775.738 C 553.792 778.357, 555.192 786.125, 556.539 793 C 561.061 816.074, 561.874 822.108, 561.368 828.839 C 560.965 834.212, 561.219 836.006, 562.684 838.116 C 563.683 839.554, 565.719 842.554, 567.209 844.781 C 568.700 847.009, 570.352 849.100, 570.882 849.427 C 571.411 849.754, 572.848 853.054, 574.075 856.761 C 580.913 877.418, 592.838 898.499, 604.050 909.747 C 616.159 921.896, 625.431 926.252, 639.500 926.403 C 650.461 926.520, 655.688 924.365, 662.312 916.998 C 674.897 903, 673.771 879.262, 658.858 844.178 C 655.517 836.318, 654.886 833.730, 654.838 827.678 C 654.756 817.511, 653.558 813.701, 649.054 809.286 C 646.092 806.382, 644.275 803.071, 641.480 795.483 C 637.241 783.971, 633.054 773.037, 628.325 761.124 C 626.496 756.518, 625 752.182, 625 751.490 C 625 750.706, 627.172 749.961, 630.750 749.518 C 645.967 747.631, 660.194 740.461, 671.993 728.732 C 689.052 711.774, 695.167 690.271, 688.139 671.958 C 683.433 659.697, 670.924 648.372, 653.338 640.452 C 647.932 638.017, 643.381 635.643, 643.225 635.176 C 643.069 634.708, 644.643 633.610, 646.721 632.734 C 657.633 628.137, 681.812 613.863, 695.602 603.877 C 755.805 560.280, 792.726 502.413, 801.436 438 C 802.217 432.225, 803.865 421.425, 805.098 414 C 807.784 397.826, 808.303 368.926, 806.168 354.500 C 803.041 333.384, 796.352 310.951, 786.351 288.047 C 772.956 257.367, 764.187 228.392, 761.474 205.844 L 760.793 200.188 756.147 202.362 C 753.591 203.557, 748.653 206.480, 745.173 208.857 C 741.693 211.234, 738.670 213.003, 738.455 212.789 C 738.240 212.574, 737.600 208.296, 737.032 203.282 C 735.619 190.805, 737.518 174.438, 741.508 164.717 C 742.171 163.100, 741.972 163.047, 739.370 164.150 C 733.134 166.793, 719.131 176.821, 712.379 183.478 C 704.447 191.300, 697.531 201.440, 693.948 210.500 C 692.643 213.800, 691.501 216.633, 691.409 216.796 C 691.317 216.958, 685.445 213.297, 678.359 208.660 C 643.604 185.914, 606.702 172.084, 558 163.550 C 545.999 161.447, 530.399 159.912, 516.500 159.466 C 507.700 159.184, 497.800 158.822, 494.500 158.661 C 491.200 158.500, 481.734 158.688, 473.464 159.080 M 565.500 243.644 C 563.850 243.834, 557.550 244.478, 551.500 245.075 C 482.545 251.882, 414.161 277.280, 368.519 313.035 C 357.489 321.676, 338.999 339.869, 330.952 350 C 324.879 357.646, 314.654 373.010, 309.990 381.500 L 306.693 387.500 310.097 384.424 C 316.568 378.577, 321.832 374.974, 328.384 371.907 C 346.673 363.349, 364.473 363.955, 381.282 373.708 C 389.534 378.496, 405.065 394.237, 412.650 405.500 C 448.174 458.251, 462.920 534.062, 446.113 577.530 C 438.164 598.089, 422.561 612.396, 402.540 617.485 C 395.111 619.373, 378.705 619.424, 370 617.585 C 366.425 616.830, 363.379 616.323, 363.230 616.459 C 362.690 616.954, 380.524 627.448, 389.873 632.137 C 398.926 636.677, 399.515 636.839, 400.205 634.976 C 400.987 632.861, 403.466 632.326, 404.527 634.044 C 404.882 634.618, 404.628 635.743, 403.964 636.544 C 402.963 637.750, 403.378 638.258, 406.378 639.500 C 408.370 640.325, 411.547 641.640, 413.437 642.423 C 415.328 643.205, 417.870 643.585, 419.087 643.267 C 420.500 642.898, 421.724 643.270, 422.476 644.298 C 424.619 647.229, 455.930 654.862, 472.500 656.493 C 475.800 656.818, 479.962 657.311, 481.750 657.587 C 484.185 657.964, 485 657.718, 485 656.604 C 485 653.976, 487.256 653.598, 489.130 655.912 C 490.778 657.947, 492.065 658.193, 503.824 658.716 C 518.350 659.362, 521.533 658.896, 522.287 656.011 C 522.964 653.422, 525.034 653.416, 525.710 656 C 526.132 657.612, 527.074 658, 530.565 658 C 538.669 658, 572.032 652.996, 581.078 650.423 C 581.946 650.176, 582.621 648.982, 582.578 647.768 C 582.531 646.428, 583.187 645.423, 584.250 645.208 C 585.472 644.960, 586 645.485, 586 646.946 C 586 649.330, 586.278 649.297, 599 645.409 C 615.230 640.448, 617.003 639.708, 615.885 638.362 C 615.304 637.661, 615.118 636.618, 615.473 636.044 C 616.460 634.446, 620 634.803, 620 636.500 C 620 637.325, 620.223 638, 620.495 638 C 622.755 638, 646.117 627.581, 656.296 622.034 C 730.864 581.394, 780.021 520.630, 793.446 452.500 C 794.747 445.900, 796.073 438.025, 796.394 435 C 796.971 429.557, 796.937 429.606, 793.052 439.717 C 783.945 463.425, 772.608 481.594, 757.591 496.550 C 723.401 530.603, 675.166 544.273, 627.500 533.420 C 564.371 519.046, 516.556 469.292, 505.883 406.871 C 504.086 396.358, 503.850 391.947, 504.310 377.500 C 505.073 353.577, 508.924 337.892, 518.955 317.851 C 527.457 300.863, 541.985 283.662, 557.500 272.213 C 572.796 260.924, 595.884 251.159, 615.500 247.679 C 634.253 244.353, 633.397 244.675, 625.500 243.919 C 618.363 243.235, 570.949 243.018, 565.500 243.644 M 628.500 250.100 C 573.032 256.711, 530.868 289.871, 515.109 339.276 C 506.940 364.888, 506.251 392.326, 513.111 418.930 C 526.495 470.838, 569.143 513.221, 622.275 527.416 C 650.268 534.894, 679.287 534.010, 704.431 524.912 C 738.544 512.568, 763.200 490.549, 780.368 457.097 C 789.302 439.689, 796.971 414.258, 796.991 401.974 C 797.020 384.381, 789.796 354.722, 780.647 334.872 C 777.391 327.807, 768.871 313.919, 764.162 308 C 745.003 283.919, 717.523 266.064, 683.500 255.590 C 678.550 254.066, 672.700 252.130, 670.500 251.288 C 665.586 249.407, 640.315 248.692, 628.500 250.100 M 646.887 274.191 C 602.839 278.186, 565.113 310.690, 553.232 354.881 C 550.917 363.494, 550.641 366.382, 550.596 382.500 C 550.543 401.433, 551.318 406.262, 556.983 422.256 C 561.722 435.635, 574.270 454.476, 584.931 464.220 C 598.688 476.793, 617.788 487.275, 634.924 491.658 C 660.944 498.312, 691.672 494.565, 714.788 481.920 C 760.940 456.675, 782.574 406.653, 769.459 355.511 C 758.660 313.401, 724.789 282.804, 681 275.605 C 669.727 273.751, 657.376 273.239, 646.887 274.191 M 662.174 349.040 C 654.026 350.203, 644.972 355.156, 638.946 361.749 C 633.125 368.119, 630.686 373.027, 628.945 381.874 C 625.667 398.534, 635.691 417.232, 652 424.880 C 656.805 427.133, 658.827 427.462, 668 427.480 C 677.710 427.498, 678.996 427.265, 685.102 424.372 C 693.531 420.378, 700.378 413.531, 704.372 405.102 C 707.227 399.075, 707.500 397.628, 707.500 388.500 C 707.500 377.739, 706.096 373.136, 700.203 364.571 C 692.624 353.556, 676.548 346.990, 662.174 349.040 M 345 371.670 C 340.727 372.349, 330.587 376.157, 328.750 377.772 C 327.788 378.618, 327 379.004, 327 378.629 C 327 376.820, 319.963 381.965, 313.035 388.839 C 297.537 404.217, 288.203 426.496, 284.899 456 C 280.543 494.891, 293.385 539.923, 318.835 575 C 326.836 586.027, 344.301 602.948, 351 606.162 C 379.554 619.864, 407.303 617.105, 426.750 598.632 C 432.392 593.273, 434.880 589.966, 437.687 584.097 C 441.803 575.491, 446.272 562, 445.006 562 C 444.544 562, 444.017 562.380, 443.833 562.845 C 443.087 564.739, 433.057 570.910, 426.500 573.510 C 418.069 576.853, 404.516 577.941, 394.775 576.056 C 375.726 572.371, 353.503 555.686, 340.312 535.166 C 323.071 508.346, 312.553 465.667, 315.986 436.463 C 319.155 409.512, 332.064 388.889, 351.672 379.452 C 355.616 377.553, 359.216 375.997, 359.672 375.994 C 360.127 375.991, 362.300 375.479, 364.500 374.856 L 368.500 373.724 365 372.438 C 361.700 371.226, 350.500 370.795, 345 371.670 M 395.398 450.395 C 388.736 453.497, 383.369 458.970, 380.182 465.908 C 376.676 473.542, 376.537 486.699, 379.871 495.202 C 384.881 507.975, 397.371 517.007, 410 516.989 C 437.732 516.951, 449.506 479.863, 428.684 458.134 C 419.475 448.523, 406.098 445.413, 395.398 450.395 M 760.336 509.567 C 760.005 510.429, 760.225 511.625, 760.825 512.225 C 762.269 513.669, 765.096 511.414, 764.334 509.427 C 763.602 507.521, 761.087 507.609, 760.336 509.567 M 755 521 C 755 522.646, 755.518 523.065, 757.250 522.820 C 758.487 522.644, 759.500 521.825, 759.500 521 C 759.500 520.175, 758.487 519.356, 757.250 519.180 C 755.518 518.935, 755 519.354, 755 521 M 520.380 521.452 C 519.683 523.267, 520.695 525, 522.452 525 C 523.968 525, 525.292 522.282, 524.444 520.910 C 523.570 519.495, 520.999 519.839, 520.380 521.452 M 742.336 522.567 C 741.614 524.448, 743.384 526.499, 744.913 525.554 C 746.561 524.535, 746.216 521, 744.469 521 C 743.626 521, 742.667 521.705, 742.336 522.567 M 548.336 526.567 C 547.502 528.739, 549.618 530.782, 551.133 529.267 C 552.413 527.987, 551.620 525, 550 525 C 549.415 525, 548.667 525.705, 548.336 526.567 M 502 530 C 502 531.646, 502.518 532.065, 504.250 531.820 C 505.488 531.644, 506.500 530.825, 506.500 530 C 506.500 529.175, 505.488 528.356, 504.250 528.180 C 502.518 527.935, 502 528.354, 502 530 M 480 535 C 480 536.333, 480.667 537, 482 537 C 483.333 537, 484 536.333, 484 535 C 484 533.667, 483.333 533, 482 533 C 480.667 533, 480 533.667, 480 535 M 529 535 C 529 536.333, 529.667 537, 531 537 C 532.333 537, 533 536.333, 533 535 C 533 533.667, 532.333 533, 531 533 C 529.667 533, 529 533.667, 529 535 M 742.380 535.452 C 741.683 537.267, 742.695 539, 744.452 539 C 746.277 539, 747.096 536.496, 745.722 535.122 C 744.199 533.599, 743.048 533.712, 742.380 535.452 M 514.364 541.493 C 514.018 542.396, 514.214 543.614, 514.800 544.200 C 516.324 545.724, 519.210 544.331, 518.812 542.265 C 518.369 539.963, 515.165 539.407, 514.364 541.493 M 728.534 541.945 C 727.569 543.506, 728.839 545, 731.132 545 C 732.507 545, 733.040 544.448, 732.812 543.261 C 732.428 541.269, 729.507 540.370, 728.534 541.945 M 562 544 C 562 545.646, 562.518 546.065, 564.250 545.820 C 565.487 545.644, 566.500 544.825, 566.500 544 C 566.500 543.175, 565.487 542.356, 564.250 542.180 C 562.518 541.935, 562 542.354, 562 544 M 541.568 549.675 C 539.372 571.666, 529.350 581.830, 512.500 579.157 C 506.252 578.165, 504.525 578.448, 507.029 580.051 C 511.848 583.137, 523.811 583.942, 529.505 581.562 C 534.303 579.558, 538.811 574.638, 541.862 568.079 C 544.020 563.439, 544.460 561.036, 544.478 553.800 C 544.506 542.579, 542.553 539.810, 541.568 549.675 M 710.336 546.567 C 709.426 548.939, 711.559 550.611, 713.470 549.025 C 714.654 548.042, 714.754 547.409, 713.890 546.367 C 712.392 544.563, 711.077 544.637, 710.336 546.567 M 487.688 547.646 C 486.216 549.117, 486.990 552.149, 488.750 551.810 C 489.712 551.624, 490.500 550.616, 490.500 549.570 C 490.500 547.580, 488.869 546.464, 487.688 547.646 M 577.500 552 C 576.577 553.494, 577.861 555, 580.059 555 C 581.333 555, 582 554.313, 582 553 C 582 550.879, 578.653 550.135, 577.500 552 M 473.336 553.567 C 473.005 554.429, 473.225 555.625, 473.825 556.225 C 475.269 557.669, 478.096 555.414, 477.334 553.427 C 476.602 551.521, 474.087 551.609, 473.336 553.567 M 605.556 553.910 C 604.913 554.950, 605.889 558.008, 606.857 557.985 C 608.619 557.943, 610.222 556.020, 609.677 554.601 C 609.011 552.866, 606.465 552.439, 605.556 553.910 M 638.441 555.096 C 637.384 556.806, 640.718 559.682, 642.126 558.274 C 642.753 557.647, 642.995 556.429, 642.664 555.567 C 641.972 553.764, 639.439 553.481, 638.441 555.096 M 675.992 556.509 C 675.048 557.647, 674.988 558.388, 675.775 559.175 C 677.292 560.692, 680.217 559.363, 679.824 557.336 C 679.375 555.020, 677.554 554.627, 675.992 556.509 M 727.336 557.567 C 726.502 559.739, 728.618 561.782, 730.133 560.267 C 731.413 558.987, 730.620 556, 729 556 C 728.415 556, 727.667 556.705, 727.336 557.567 M 710 558.941 C 710 561.462, 711.715 562.482, 713.484 561.013 C 715.305 559.502, 714.313 557, 711.893 557 C 710.686 557, 710 557.703, 710 558.941 M 690.364 560.493 C 690.018 561.396, 690.169 562.569, 690.700 563.100 C 692.099 564.499, 695.153 563.032, 694.788 561.136 C 694.364 558.935, 691.142 558.467, 690.364 560.493 M 570 567 C 570 568.646, 570.518 569.065, 572.250 568.820 C 573.487 568.644, 574.500 567.825, 574.500 567 C 574.500 566.175, 573.487 565.356, 572.250 565.180 C 570.518 564.935, 570 565.354, 570 567 M 663.169 567.161 C 663.351 568.447, 664.175 569.500, 665 569.500 C 667.169 569.500, 666.870 565.599, 664.669 565.175 C 663.249 564.901, 662.912 565.347, 663.169 567.161 M 715.380 568.452 C 714.676 570.286, 715.700 572, 717.500 572 C 719.558 572, 720.338 570.112, 718.964 568.456 C 717.425 566.603, 716.090 566.601, 715.380 568.452 M 470.412 569.369 C 469.661 571.325, 470.684 573, 472.629 573 C 473.610 573, 474.027 572.240, 473.820 570.828 C 473.432 568.191, 471.226 567.247, 470.412 569.369 M 703.685 570.378 C 703.394 571.136, 703.626 572.226, 704.200 572.800 C 705.688 574.288, 708 573.128, 708 570.893 C 708 568.672, 704.500 568.254, 703.685 570.378 M 630.688 570.646 C 629.147 572.186, 630.040 575, 632.070 575 C 633.625 575, 634.060 574.461, 633.820 572.828 C 633.488 570.573, 631.880 569.453, 630.688 570.646 M 590.380 572.452 C 589.663 574.320, 590.710 576, 592.590 576 C 594.634 576, 595.595 572.991, 593.896 571.914 C 591.907 570.655, 591.017 570.792, 590.380 572.452 M 649.992 572.509 C 649.048 573.647, 648.988 574.388, 649.775 575.175 C 651.292 576.692, 654.217 575.363, 653.824 573.336 C 653.375 571.020, 651.554 570.627, 649.992 572.509 M 677.323 574.601 C 676.470 576.823, 679.134 578.294, 680.868 576.560 C 681.621 575.807, 681.932 574.699, 681.559 574.096 C 680.553 572.468, 678.026 572.769, 677.323 574.601 M 610.351 575.527 C 609.618 577.437, 611.623 579.082, 613.708 578.282 C 615.596 577.557, 614.894 574.603, 612.735 574.188 C 611.778 574.003, 610.705 574.606, 610.351 575.527 M 687.014 581.992 C 685.199 583.113, 686.600 586.224, 688.735 585.812 C 689.693 585.628, 690.617 584.751, 690.788 583.864 C 691.153 581.966, 688.880 580.838, 687.014 581.992 M 579.336 584.567 C 579.005 585.429, 579.225 586.625, 579.825 587.225 C 581.269 588.669, 584.096 586.414, 583.334 584.427 C 582.602 582.521, 580.087 582.609, 579.336 584.567 M 699.380 584.452 C 698.683 586.267, 699.695 588, 701.452 588 C 702.968 588, 704.292 585.282, 703.444 583.910 C 702.570 582.495, 699.999 582.839, 699.380 584.452 M 473 588 C 473 589.646, 473.518 590.065, 475.250 589.820 C 476.488 589.644, 477.500 588.825, 477.500 588 C 477.500 587.175, 476.488 586.356, 475.250 586.180 C 473.518 585.935, 473 586.354, 473 588 M 651 588 C 651 589.646, 651.518 590.065, 653.250 589.820 C 654.487 589.644, 655.500 588.825, 655.500 588 C 655.500 587.175, 654.487 586.356, 653.250 586.180 C 651.518 585.935, 651 586.354, 651 588 M 614.380 588.452 C 613.683 590.267, 614.695 592, 616.452 592 C 618.277 592, 619.096 589.496, 617.722 588.122 C 616.199 586.599, 615.048 586.712, 614.380 588.452 M 463 591 C 463 592.333, 463.667 593, 465 593 C 466.333 593, 467 592.333, 467 591 C 467 589.667, 466.333 589, 465 589 C 463.667 589, 463 589.667, 463 591 M 663 597 C 663 598.273, 663.667 599, 664.833 599 C 667.193 599, 667.998 598.159, 667.324 596.402 C 666.475 594.190, 663 594.671, 663 597 M 590.364 597.493 C 590.018 598.396, 590.214 599.614, 590.800 600.200 C 592.324 601.724, 595.210 600.331, 594.812 598.265 C 594.369 595.963, 591.165 595.407, 590.364 597.493 M 683.175 598.669 C 683.599 600.870, 687.500 601.169, 687.500 599 C 687.500 598.175, 686.447 597.351, 685.161 597.169 C 683.347 596.912, 682.901 597.249, 683.175 598.669 M 639.480 599.032 C 639.092 599.660, 639.245 600.645, 639.820 601.220 C 641.164 602.564, 644.297 601.392, 643.750 599.749 C 643.194 598.078, 640.364 597.602, 639.480 599.032 M 626.412 600.369 C 625.661 602.325, 626.684 604, 628.629 604 C 629.610 604, 630.027 603.240, 629.820 601.828 C 629.432 599.191, 627.226 598.247, 626.412 600.369 M 609.915 603.602 C 609.027 604.672, 608.988 605.388, 609.775 606.175 C 611.156 607.556, 614 606.522, 614 604.638 C 614 602.555, 611.344 601.881, 609.915 603.602 M 578.992 604.509 C 578.048 605.647, 577.988 606.388, 578.775 607.175 C 580.292 608.692, 583.217 607.363, 582.824 605.336 C 582.375 603.020, 580.554 602.627, 578.992 604.509 M 527.590 604.854 C 526.597 606.461, 528.143 609.119, 529.876 608.785 C 532.006 608.375, 531.980 604.620, 529.843 604.208 C 528.932 604.033, 527.918 604.324, 527.590 604.854 M 655.180 606.250 C 655.356 607.487, 656.175 608.500, 657 608.500 C 657.825 608.500, 658.644 607.487, 658.820 606.250 C 659.065 604.518, 658.646 604, 657 604 C 655.354 604, 654.935 604.518, 655.180 606.250 M 669.323 605.601 C 668.692 607.246, 670.777 609.256, 672.202 608.375 C 672.641 608.104, 673 607.009, 673 605.941 C 673 603.601, 670.190 603.341, 669.323 605.601 M 464.380 606.452 C 463.676 608.286, 464.700 610, 466.500 610 C 468.558 610, 469.338 608.112, 467.964 606.456 C 466.425 604.603, 465.090 604.601, 464.380 606.452 M 592.180 611.250 C 592.356 612.487, 593.175 613.500, 594 613.500 C 594.825 613.500, 595.644 612.487, 595.820 611.250 C 596.065 609.518, 595.646 609, 594 609 C 592.354 609, 591.935 609.518, 592.180 611.250 M 564 613 C 564 614.333, 564.667 615, 566 615 C 567.333 615, 568 614.333, 568 613 C 568 611.667, 567.333 611, 566 611 C 564.667 611, 564 611.667, 564 613 M 633.336 615.567 C 633.005 616.429, 633.225 617.625, 633.825 618.225 C 635.269 619.669, 638.096 617.414, 637.334 615.427 C 636.602 613.521, 634.087 613.609, 633.336 615.567 M 648.412 615.369 C 647.661 617.325, 648.684 619, 650.629 619 C 651.610 619, 652.027 618.240, 651.820 616.828 C 651.432 614.191, 649.226 613.247, 648.412 615.369 M 438.104 616.935 C 436.402 617.988, 437.369 621, 439.410 621 C 441.605 621, 442.426 618.997, 440.868 617.440 C 440.009 616.581, 438.981 616.393, 438.104 616.935 M 453.688 616.646 C 452.216 618.117, 452.990 621.149, 454.750 620.810 C 455.712 620.624, 456.500 619.616, 456.500 618.570 C 456.500 616.580, 454.869 615.464, 453.688 616.646 M 475.291 617.109 C 473.706 618.694, 474.824 621, 477.177 621 C 478.622 621, 479.055 620.428, 478.820 618.828 C 478.443 616.272, 476.886 615.514, 475.291 617.109 M 518.323 619.601 C 517.470 621.823, 520.134 623.294, 521.868 621.560 C 522.621 620.807, 522.932 619.699, 522.559 619.096 C 521.553 617.468, 519.026 617.769, 518.323 619.601 M 538.915 620.602 C 538.027 621.672, 537.988 622.388, 538.775 623.175 C 540.156 624.556, 543 623.522, 543 621.638 C 543 619.555, 540.344 618.881, 538.915 620.602 M 608.180 623.250 C 608.356 624.487, 609.175 625.500, 610 625.500 C 610.825 625.500, 611.644 624.487, 611.820 623.250 C 612.065 621.518, 611.646 621, 610 621 C 608.354 621, 607.935 621.518, 608.180 623.250 M 637.104 622.935 C 635.402 623.988, 636.369 627, 638.410 627 C 640.605 627, 641.426 624.997, 639.868 623.440 C 639.009 622.581, 637.981 622.393, 637.104 622.935 M 570.688 624.646 C 569.147 626.186, 570.040 629, 572.070 629 C 573.625 629, 574.060 628.461, 573.820 626.828 C 573.488 624.573, 571.880 623.453, 570.688 624.646 M 583.441 625.096 C 582.384 626.806, 585.718 629.682, 587.126 628.274 C 587.753 627.647, 587.995 626.429, 587.664 625.567 C 586.972 623.764, 584.439 623.481, 583.441 625.096 M 417.180 628.250 C 417.356 629.487, 418.175 630.500, 419 630.500 C 419.825 630.500, 420.644 629.487, 420.820 628.250 C 421.065 626.518, 420.646 626, 419 626 C 417.354 626, 416.935 626.518, 417.180 628.250 M 458 628 C 458 629.333, 458.667 630, 460 630 C 461.333 630, 462 629.333, 462 628 C 462 626.667, 461.333 626, 460 626 C 458.667 626, 458 626.667, 458 628 M 529 628 C 529 629.333, 529.667 630, 531 630 C 532.333 630, 533 629.333, 533 628 C 533 626.667, 532.333 626, 531 626 C 529.667 626, 529 626.667, 529 628 M 549.500 627 C 548.577 628.494, 549.861 630, 552.059 630 C 553.333 630, 554 629.313, 554 628 C 554 625.879, 550.653 625.135, 549.500 627 M 508.104 627.935 C 506.402 628.988, 507.369 632, 509.410 632 C 511.605 632, 512.426 629.997, 510.868 628.440 C 510.009 627.581, 508.981 627.393, 508.104 627.935 M 435.104 631.935 C 433.402 632.988, 434.369 636, 436.410 636 C 438.605 636, 439.426 633.997, 437.868 632.440 C 437.009 631.581, 435.981 631.393, 435.104 631.935 M 471.441 632.096 C 471.068 632.699, 471.379 633.807, 472.132 634.560 C 473.866 636.294, 476.530 634.823, 475.677 632.601 C 474.974 630.769, 472.447 630.468, 471.441 632.096 M 491.915 632.602 C 491.027 633.672, 490.988 634.388, 491.775 635.175 C 493.156 636.556, 496 635.522, 496 633.638 C 496 631.555, 493.344 630.881, 491.915 632.602 M 598.593 635.618 C 598.231 636.562, 598.369 637.769, 598.900 638.300 C 600.345 639.745, 603.197 638.261, 602.812 636.265 C 602.362 633.924, 599.416 633.473, 598.593 635.618 M 530.364 637.493 C 530.018 638.396, 530.214 639.614, 530.800 640.200 C 532.324 641.724, 535.210 640.331, 534.812 638.265 C 534.369 635.963, 531.165 635.407, 530.364 637.493 M 559.336 637.567 C 559.005 638.429, 559.225 639.625, 559.825 640.225 C 561.269 641.669, 564.096 639.414, 563.334 637.427 C 562.602 635.521, 560.087 635.609, 559.336 637.567 M 458 640 C 458 641.333, 458.667 642, 460 642 C 461.333 642, 462 641.333, 462 640 C 462 638.667, 461.333 638, 460 638 C 458.667 638, 458 638.667, 458 640 M 571.718 640.292 C 571.425 641.056, 571.548 642.269, 571.992 642.986 C 573.113 644.801, 576.224 643.400, 575.812 641.265 C 575.397 639.106, 572.443 638.404, 571.718 640.292 M 514.441 641.096 C 514.068 641.699, 514.379 642.807, 515.132 643.560 C 516.866 645.294, 519.530 643.823, 518.677 641.601 C 517.974 639.769, 515.447 639.468, 514.441 641.096 M 489.104 641.935 C 487.402 642.988, 488.369 646, 490.410 646 C 492.605 646, 493.426 643.997, 491.868 642.440 C 491.009 641.581, 489.981 641.393, 489.104 641.935 M 471.915 644.602 C 471.027 645.672, 470.988 646.388, 471.775 647.175 C 473.156 648.556, 476 647.522, 476 645.638 C 476 643.555, 473.344 642.881, 471.915 644.602 M 446.992 646.509 C 446.048 647.647, 445.988 648.388, 446.775 649.175 C 448.292 650.692, 451.217 649.363, 450.824 647.336 C 450.375 645.020, 448.554 644.627, 446.992 646.509 M 502.915 649.602 C 502.027 650.672, 501.988 651.388, 502.775 652.175 C 504.156 653.556, 507 652.522, 507 650.638 C 507 648.555, 504.344 647.881, 502.915 649.602 M 548.688 648.646 C 547.147 650.186, 548.040 653, 550.070 653 C 551.625 653, 552.060 652.461, 551.820 650.828 C 551.488 648.573, 549.880 647.453, 548.688 648.646 M 597 656.093 C 597 658.641, 605.098 694.498, 605.842 695.242 C 607.170 696.570, 614 680.896, 614 676.521 C 614 670.982, 610.636 664.757, 604.813 659.522 C 599.936 655.137, 597 653.848, 597 656.093 M 552.500 661.609 C 546.450 662.342, 535.715 663.378, 528.644 663.911 C 521.573 664.443, 515.572 665.095, 515.308 665.358 C 515.045 665.622, 517.210 669.361, 520.120 673.669 L 525.411 681.500 525.193 706 C 525.073 719.475, 524.697 737.498, 524.357 746.051 L 523.740 761.601 539.935 762.902 C 548.842 763.618, 556.276 764.045, 556.454 763.851 C 556.633 763.658, 555.040 745.500, 552.914 723.500 C 550.789 701.500, 549.038 682.022, 549.025 680.216 C 549.008 677.939, 549.843 676.098, 551.750 674.209 C 558.224 667.797, 565.222 660.011, 564.395 660.138 C 563.903 660.214, 558.550 660.876, 552.500 661.609 M 483.865 669.377 C 476.983 674.632, 473.694 680.086, 473.188 687.082 C 472.825 692.093, 473.268 694.233, 476.067 701.014 C 477.886 705.420, 479.695 708.682, 480.086 708.263 C 480.478 707.843, 482.018 702.100, 483.508 695.500 C 488.040 675.431, 490 666.616, 490 666.301 C 490 665.290, 487.720 666.433, 483.865 669.377 M 615.450 692.099 C 614.028 694.904, 613.008 697.315, 613.183 697.457 C 613.357 697.599, 621.150 700.540, 630.500 703.993 C 639.850 707.446, 653.078 712.456, 659.896 715.127 C 671.486 719.668, 672.381 719.871, 673.664 718.242 C 676.243 714.968, 680.244 707.910, 679.782 707.449 C 679.165 706.832, 620.204 687, 618.987 687 C 618.463 687, 616.871 689.295, 615.450 692.099 M 456 695.465 C 451.325 696.132, 440.845 697.522, 432.712 698.553 C 424.578 699.585, 417.434 700.732, 416.835 701.102 C 416.055 701.584, 416.084 703.181, 416.937 706.739 L 418.128 711.702 426.314 710.386 C 430.816 709.662, 442.515 707.845, 452.312 706.348 C 469.770 703.681, 470.112 703.582, 469.554 701.358 C 468.359 696.599, 467.003 694.005, 465.775 694.126 C 465.074 694.196, 460.675 694.798, 456 695.465 M 605.295 710.594 C 599.552 722.688, 599.801 729.403, 606.248 736.303 C 613.891 744.483, 631.045 745.795, 646.315 739.367 C 656.382 735.130, 668.535 726.067, 666.137 724.585 C 665.005 723.885, 610.072 703, 609.364 703 C 609.110 703, 607.278 706.417, 605.295 710.594 M 447.500 713.556 C 436.500 715.393, 426.262 717.015, 424.750 717.161 C 423.238 717.306, 422 717.968, 422 718.632 C 422 719.296, 424.202 722.238, 426.893 725.169 C 437.981 737.249, 453.991 742.528, 464.075 737.431 C 468.072 735.411, 473.755 728.546, 474.928 724.321 C 476.246 719.573, 476.248 718.434, 474.947 713.750 C 473.653 709.087, 474.236 709.091, 447.500 713.556 M 489.250 710.703 C 488.563 710.958, 488 712.254, 488 713.583 C 488 715.346, 488.550 716, 490.031 716 C 491.149 716, 492.335 715.290, 492.668 714.422 C 493.380 712.567, 491.052 710.035, 489.250 710.703 M 586.306 711.645 C 585.919 712.654, 586.397 713.817, 587.542 714.654 C 589.126 715.813, 589.626 715.803, 590.841 714.587 C 591.629 713.800, 592.001 712.445, 591.668 711.578 C 590.871 709.501, 587.111 709.548, 586.306 711.645 M 465 823.795 C 465 827.396, 465.322 827.917, 468.162 828.907 C 471.920 830.217, 471.929 830.210, 472.652 825.760 C 473.156 822.654, 472.942 822.202, 470.702 821.640 C 469.318 821.293, 467.469 820.733, 466.593 820.397 C 465.299 819.901, 465 820.538, 465 823.795 M 478.642 827.750 C 478.301 829.813, 478.017 832.962, 478.011 834.750 C 477.998 838.568, 477.976 838.572, 470.657 836.054 L 465 834.108 465 844.943 C 465 857.835, 467.217 870.607, 470.651 877.500 C 474.064 884.350, 474.584 884.729, 477.237 882.304 C 482.914 877.112, 490.228 875.283, 498.470 876.994 C 502.975 877.929, 505.093 879.081, 508.751 882.586 C 511.285 885.014, 513.674 887, 514.060 887 C 515.095 887, 519.412 881.092, 521.733 876.500 C 524.384 871.253, 525.947 863.617, 526.692 852.279 L 527.298 843.059 522.123 843.672 L 516.949 844.285 517.673 838.392 C 519.131 826.526, 520.120 827.601, 507 826.785 C 500.675 826.392, 492.489 825.604, 488.808 825.035 C 479.266 823.559, 479.338 823.540, 478.642 827.750 M 525 829.302 C 525 830.098, 524.711 832.196, 524.357 833.963 C 523.766 836.921, 523.905 837.150, 526.107 836.838 C 528.174 836.546, 528.500 835.957, 528.500 832.514 C 528.500 829.512, 528.068 828.444, 526.750 828.190 C 525.734 827.995, 525 828.461, 525 829.302 M 646.689 839.701 C 644.820 840.185, 644.954 843.049, 647.115 848.782 C 647.947 850.989, 648.077 851.011, 651.069 849.465 C 653.329 848.296, 653.978 847.412, 653.479 846.182 C 653.103 845.257, 652.347 843.263, 651.800 841.750 C 650.815 839.029, 650.214 838.788, 646.689 839.701 M 628 845.081 C 623.875 846.105, 616.315 847.505, 611.201 848.193 C 606.086 848.880, 601.425 849.737, 600.842 850.097 C 600.114 850.547, 600.286 852.962, 601.392 857.823 C 602.276 861.713, 603 865.210, 603 865.594 C 603 865.979, 598.706 866.038, 593.457 865.725 C 582.164 865.051, 582.385 864.174, 590.152 878.873 C 599.536 896.631, 608.776 908.514, 617.888 914.545 C 622.668 917.708, 622.490 917.781, 626.162 911.147 C 628.237 907.398, 633.928 903.577, 641.291 900.989 C 648.042 898.616, 653.247 898.470, 658.981 900.493 C 661.308 901.314, 663.563 901.770, 663.991 901.506 C 665.591 900.517, 666.091 891.694, 664.970 884.226 C 663.876 876.940, 657.723 856.342, 656.175 854.781 C 655.782 854.385, 653.032 855.187, 650.063 856.563 C 647.093 857.938, 644.331 858.712, 643.925 858.282 C 643.519 857.852, 642.225 854.237, 641.051 850.250 C 638.629 842.027, 639.276 842.283, 628 845.081 M 578.481 852.845 C 578.839 854.305, 579.687 856.069, 580.366 856.765 C 581.676 858.107, 593.738 860.596, 594.626 859.707 C 594.914 859.419, 594.841 857.121, 594.463 854.601 L 593.776 850.019 585.803 850.105 L 577.831 850.190 578.481 852.845 M 509 853.383 C 509 853.594, 509.901 854.002, 511.001 854.290 C 512.102 854.578, 512.751 854.405, 512.442 853.907 C 511.904 853.036, 509 852.594, 509 853.383 M 647.813 870.683 C 648.534 870.972, 649.397 870.936, 649.729 870.604 C 650.061 870.272, 649.471 870.036, 648.417 870.079 C 647.252 870.127, 647.015 870.364, 647.813 870.683 M 486.741 883.377 C 479.055 886.227, 478.129 888.724, 483.750 891.444 C 492.423 895.642, 509.636 893.925, 507.064 889.119 C 504.244 883.851, 493.584 880.839, 486.741 883.377 M 645 905.935 C 637.454 908.239, 629 914.894, 629 918.531 C 629 921.920, 644.831 921.657, 651.697 918.155 C 655.662 916.132, 661 910.806, 661 908.872 C 661 906.113, 650.644 904.212, 645 905.935" stroke="none" fill="black" fill-rule="evenodd"/>
</svg>